<svg width="691" height="163" viewBox="0 0 691 163" fill="none" xmlns="http://www.w3.org/2000/svg">
<rect x="0.142487" width="341.85" height="17.5711" fill="#0153E3"/>
<path fill-rule="evenodd" clip-rule="evenodd" d="M0.030152 106.105L0.000528403 121.198L33.5477 121.264L33.7111 121.526L34.1303 121.265L51.4652 121.299L42.053 106.188L41.9381 106.188L12.9174 59.5957L0.106756 67.575L24.1355 106.153L0.030152 106.105Z" fill="#0153E3"/>
<rect x="0.142487" width="571.846" height="17.5711" fill="#0153E3"/>
<path fill-rule="evenodd" clip-rule="evenodd" d="M563.12 163.001H613.328C629.852 163.001 643.887 159.744 655.433 153.23C666.979 146.662 675.771 137.288 681.808 125.107C687.846 112.872 690.865 98.2813 690.865 81.3334C690.865 64.4914 687.872 50.0327 681.888 37.9574C675.903 25.829 667.297 16.5342 656.069 10.0728C644.841 3.55845 631.335 0.30127 615.553 0.30127H563.12V17.5706H607.845V17.7788H614.281C626.992 17.7788 637.611 20.3474 646.138 25.4848C654.665 30.5691 661.074 37.8779 665.363 47.4111C669.653 56.8913 671.798 68.1988 671.798 81.3334C671.798 94.5739 669.627 105.987 665.284 115.573C660.941 125.16 654.347 132.548 645.503 137.738C636.658 142.928 625.509 145.524 612.057 145.524H607.845V145.568H563.12V163.001Z" fill="#0153E3"/>
<path fill-rule="evenodd" clip-rule="evenodd" d="M16.5707 0H0.142487V69.3734L16.5707 94.0659V0ZM16.5707 106.069H0.142487V160.997H16.5707V106.069Z" fill="#0153E3"/>
<path fill-rule="evenodd" clip-rule="evenodd" d="M0.030152 106.105L0.000528403 121.198L33.5477 121.264L33.7111 121.526L34.1303 121.265L51.4652 121.299L42.053 106.188L41.9381 106.188L12.9174 59.5957L0.106756 67.575L24.1355 106.153L0.030152 106.105Z" fill="#0153E3"/>
</svg>
