
<svg width="53" height="33" viewBox="0 0 53 33" fill="none" xmlns="http://www.w3.org/2000/svg">
<path fill-rule="evenodd" clip-rule="evenodd" d="M32.1806 0.237594L0.0534526 0.211692L0.050658 3.67804L0.0508175 3.67804L0.0428681 13.5382L0.0360455 13.5424L0.0428558 13.5534L0.0428196 13.5983L0.0708204 13.5983L4.77065 21.1574L0.0149688 21.1442L0.00672436 24.1216L0.0343355 24.1216L0.0304598 28.9289L0.0302528 28.9289L0.0275263 32.3107L27.3334 32.3327L27.3332 32.5805L37.2381 32.5884C40.4979 32.5911 43.2672 31.9507 45.5459 30.6675C47.8247 29.3737 49.5605 27.5258 50.7536 25.1237C51.9466 22.7111 52.5445 19.8331 52.5472 16.4897C52.5498 13.1672 51.9618 10.3144 50.7831 7.93124C49.6044 5.53766 47.908 3.70264 45.6941 2.42618C43.4801 1.13927 40.8163 0.494562 37.7028 0.492052L32.1804 0.487599L32.1806 0.237594ZM32.1778 3.70353L32.1778 3.70395L3.29172 3.68066L3.2841 13.1276L8.28266 21.1671L8.30444 21.1671L10.1588 24.1497L6.73839 24.1402L6.65679 24.1909L6.62504 24.1399L3.27523 24.1306L3.27136 28.9315L27.3361 28.9509L27.3361 28.9505L31.2229 28.9536L31.2229 28.954L32.1574 28.9548L32.1573 29.1364L36.9901 29.1403C39.6439 29.1425 41.8437 28.6323 43.5893 27.6098C45.335 26.5873 46.637 25.1308 47.4953 23.2404C48.3535 21.35 48.7837 19.0987 48.7858 16.4867C48.7879 13.8955 48.3666 11.6645 47.5218 9.79361C46.677 7.91226 45.4139 6.4694 43.7326 5.46502C42.0512 4.45019 39.9568 3.94176 37.4492 3.93974L34.2633 3.93717L34.2635 3.70521L32.1778 3.70353Z" fill="white"/>
</svg>
