<svg width="128" height="163" viewBox="0 0 128 163" fill="none" xmlns="http://www.w3.org/2000/svg">
<path fill-rule="evenodd" clip-rule="evenodd" d="M0.119995 163.001H50.3281C66.8523 163.001 80.8873 159.744 92.4331 153.23C103.979 146.662 112.771 137.288 118.808 125.107C124.846 112.872 127.865 98.2813 127.865 81.3334C127.865 64.4914 124.872 50.0327 118.888 37.9574C112.903 25.829 104.297 16.5342 93.0686 10.0728C81.8406 3.55845 68.3353 0.30127 52.5525 0.30127H0.119995V17.5706H44.8454V17.7788H51.2814C63.9924 17.7788 74.6113 20.3474 83.1382 25.4848C91.6651 30.5691 98.0735 37.8779 102.363 47.4111C106.653 56.8913 108.798 68.1988 108.798 81.3334C108.798 94.5739 106.627 105.987 102.284 115.573C97.9411 125.16 91.3473 132.548 82.5026 137.738C73.658 142.928 62.5094 145.524 49.057 145.524H44.8454V145.568H0.119995V163.001Z" fill="#0153E3"/>
</svg>
